<svg xmlns="http://www.w3.org/2000/svg" xmlns:xlink="http://www.w3.org/1999/xlink" width="500"
    zoomAndPan="magnify" viewBox="0 0 375 374.999991" height="500"
    preserveAspectRatio="xMidYMid meet" version="1.0">
    <defs>
        <clipPath id="8f4379f30e">
            <path d="M 316 133 L 375 133 L 375 249 L 316 249 Z M 316 133 " clip-rule="nonzero" />
        </clipPath>
        <clipPath id="f96429be89">
            <path
                d="M 301.480469 147.570312 L 423.519531 119.390625 L 448.492188 227.542969 L 326.457031 255.722656 Z M 301.480469 147.570312 "
                clip-rule="nonzero" />
        </clipPath>
        <clipPath id="47bc6a9b0f">
            <path
                d="M 301.480469 147.570312 L 423.519531 119.390625 L 448.492188 227.542969 L 326.457031 255.722656 Z M 301.480469 147.570312 "
                clip-rule="nonzero" />
        </clipPath>
        <clipPath id="d27033aba3">
            <path d="M 0 133 L 54 133 L 54 249 L 0 249 Z M 0 133 " clip-rule="nonzero" />
        </clipPath>
        <clipPath id="66a2d86006">
            <path
                d="M -73.519531 147.570312 L 48.519531 119.390625 L 73.492188 227.542969 L -48.542969 255.722656 Z M -73.519531 147.570312 "
                clip-rule="nonzero" />
        </clipPath>
        <clipPath id="edad60160b">
            <path
                d="M -73.519531 147.570312 L 48.519531 119.390625 L 73.492188 227.542969 L -48.542969 255.722656 Z M -73.519531 147.570312 "
                clip-rule="nonzero" />
        </clipPath>
        <clipPath id="0fa6013c80">
            <path d="M 129 320 L 241 320 L 241 375 L 129 375 Z M 129 320 " clip-rule="nonzero" />
        </clipPath>
        <clipPath id="604a61ea50">
            <path
                d="M 113.980469 335.070312 L 236.019531 306.890625 L 260.992188 415.042969 L 138.957031 443.222656 Z M 113.980469 335.070312 "
                clip-rule="nonzero" />
        </clipPath>
        <clipPath id="3e3fa4a403">
            <path
                d="M 113.980469 335.070312 L 236.019531 306.890625 L 260.992188 415.042969 L 138.957031 443.222656 Z M 113.980469 335.070312 "
                clip-rule="nonzero" />
        </clipPath>
        <clipPath id="1404992405">
            <path d="M 129 0 L 241 0 L 241 62 L 129 62 Z M 129 0 " clip-rule="nonzero" />
        </clipPath>
        <clipPath id="cc35d404a7">
            <path
                d="M 113.980469 -39.929688 L 236.019531 -68.109375 L 260.992188 40.042969 L 138.957031 68.222656 Z M 113.980469 -39.929688 "
                clip-rule="nonzero" />
        </clipPath>
        <clipPath id="94cc99dde9">
            <path
                d="M 113.980469 -39.929688 L 236.019531 -68.109375 L 260.992188 40.042969 L 138.957031 68.222656 Z M 113.980469 -39.929688 "
                clip-rule="nonzero" />
        </clipPath>
    </defs>
    <g clip-path="url(#8f4379f30e)">
        <g clip-path="url(#f96429be89)">
            <g clip-path="url(#47bc6a9b0f)">
                <path fill="#ffffff30"
                    d="M 369.496094 135.863281 C 367.84375 133.800781 365.136719 132.871094 362.542969 133.46875 C 359.945312 134.070312 357.945312 136.085938 357.34375 138.671875 L 350.222656 169.722656 L 320.953125 181.191406 C 318.507812 182.15625 316.808594 184.417969 316.585938 187.023438 C 316.367188 189.632812 317.617188 192.164062 319.847656 193.539062 L 346.859375 210.21875 L 348.769531 242.160156 C 348.929688 244.789062 350.582031 247.121094 353.015625 248.136719 C 355.449219 249.152344 358.257812 248.703125 360.257812 246.976562 L 383.996094 226.269531 L 414.40625 234.472656 C 416.960938 235.148438 419.6875 234.339844 421.425781 232.339844 C 423.164062 230.335938 423.628906 227.539062 422.621094 225.105469 L 410.3125 195.566406 L 427.273438 168.730469 C 428.675781 166.519531 428.710938 163.6875 427.347656 161.445312 C 425.984375 159.203125 423.488281 157.914062 420.867188 158.121094 L 389.511719 160.648438 Z M 369.496094 135.863281 "
                    fill-opacity="1" fill-rule="nonzero" />
            </g>
        </g>
    </g>
    <g clip-path="url(#d27033aba3)">
        <g clip-path="url(#66a2d86006)">
            <g clip-path="url(#edad60160b)">
                <path fill="#ffffff30"
                    d="M -5.503906 135.863281 C -7.15625 133.800781 -9.863281 132.871094 -12.457031 133.46875 C -15.054688 134.070312 -17.054688 136.085938 -17.65625 138.671875 L -24.777344 169.722656 L -54.046875 181.191406 C -56.492188 182.15625 -58.191406 184.417969 -58.414062 187.023438 C -58.632812 189.632812 -57.382812 192.164062 -55.152344 193.539062 L -28.140625 210.21875 L -26.230469 242.160156 C -26.070312 244.789062 -24.417969 247.121094 -21.984375 248.136719 C -19.550781 249.152344 -16.742188 248.703125 -14.742188 246.976562 L 8.996094 226.269531 L 39.40625 234.472656 C 41.960938 235.148438 44.6875 234.339844 46.425781 232.339844 C 48.164062 230.335938 48.628906 227.539062 47.621094 225.105469 L 35.3125 195.566406 L 52.273438 168.730469 C 53.675781 166.519531 53.710938 163.6875 52.347656 161.445312 C 50.984375 159.203125 48.488281 157.914062 45.867188 158.121094 L 14.511719 160.648438 Z M -5.503906 135.863281 "
                    fill-opacity="1" fill-rule="nonzero" />
            </g>
        </g>
    </g>
    <g clip-path="url(#0fa6013c80)">
        <g clip-path="url(#604a61ea50)">
            <g clip-path="url(#3e3fa4a403)">
                <path fill="#ffffff30"
                    d="M 181.996094 323.363281 C 180.34375 321.300781 177.636719 320.371094 175.042969 320.96875 C 172.445312 321.570312 170.445312 323.585938 169.84375 326.171875 L 162.722656 357.222656 L 133.453125 368.691406 C 131.007812 369.65625 129.308594 371.917969 129.085938 374.523438 C 128.867188 377.132812 130.117188 379.664062 132.347656 381.039062 L 159.359375 397.71875 L 161.269531 429.660156 C 161.429688 432.289062 163.082031 434.621094 165.515625 435.636719 C 167.949219 436.652344 170.757812 436.203125 172.757812 434.476562 L 196.496094 413.769531 L 226.90625 421.972656 C 229.460938 422.648438 232.1875 421.839844 233.925781 419.839844 C 235.664062 417.835938 236.128906 415.039062 235.121094 412.605469 L 222.8125 383.066406 L 239.773438 356.230469 C 241.175781 354.019531 241.210938 351.1875 239.847656 348.945312 C 238.484375 346.703125 235.988281 345.414062 233.367188 345.621094 L 202.011719 348.148438 Z M 181.996094 323.363281 "
                    fill-opacity="1" fill-rule="nonzero" />
            </g>
        </g>
    </g>
    <g clip-path="url(#1404992405)">
        <g clip-path="url(#cc35d404a7)">
            <g clip-path="url(#94cc99dde9)">
                <path fill="#ffffff30"
                    d="M 181.996094 -51.636719 C 180.34375 -53.699219 177.636719 -54.628906 175.042969 -54.03125 C 172.445312 -53.429688 170.445312 -51.414062 169.84375 -48.828125 L 162.722656 -17.777344 L 133.453125 -6.308594 C 131.007812 -5.34375 129.308594 -3.082031 129.085938 -0.476562 C 128.867188 2.132812 130.117188 4.664062 132.347656 6.039062 L 159.359375 22.71875 L 161.269531 54.660156 C 161.429688 57.289062 163.082031 59.621094 165.515625 60.636719 C 167.949219 61.652344 170.757812 61.203125 172.757812 59.476562 L 196.496094 38.769531 L 226.90625 46.972656 C 229.460938 47.648438 232.1875 46.839844 233.925781 44.839844 C 235.664062 42.835938 236.128906 40.039062 235.121094 37.605469 L 222.8125 8.066406 L 239.773438 -18.769531 C 241.175781 -20.980469 241.210938 -23.8125 239.847656 -26.054688 C 238.484375 -28.296875 235.988281 -29.585938 233.367188 -29.378906 L 202.011719 -26.851562 Z M 181.996094 -51.636719 "
                    fill-opacity="1" fill-rule="nonzero" />
            </g>
        </g>
    </g>
</svg>